<?xml version="1.0" ?><!DOCTYPE svg  PUBLIC '-//W3C//DTD SVG 1.1//EN'  'http://www.w3.org/Graphics/SVG/1.1/DTD/svg11.dtd'><svg enable-background="new 0 0 48 48" height="48px" version="1.1" viewBox="0 0 48 48" width="48px" xml:space="preserve" xmlns="http://www.w3.org/2000/svg" xmlns:xlink="http://www.w3.org/1999/xlink"><g id="Layer_5"><path d="M47.845,30.088l0.021,0.029L47.805,2.798c0-1.305-1.061-2.362-2.364-2.362   c-0.724,0-1.341,0.339-1.778,0.848l-0.021-0.01l-8.387,10.307v0.036C32.224,9.026,28.305,7.442,24,7.442   c-4.263,0-8.147,1.559-11.172,4.109l0.017-0.048L4.47,1.31L4.444,1.325c-0.433-0.53-1.062-0.889-1.796-0.889   c-1.296,0-2.346,1.05-2.346,2.346L0.132,30.439c0,0.008-0.002,0.016-0.002,0.02c0,0.008,0,0.016,0,0.021v0.184l0.011-0.006   c0.104,9.205,7.478,16.648,16.65,16.883v0.023h13.975c9.447,0,17.104-7.66,17.104-17.105C47.87,30.334,47.845,30.215,47.845,30.088   z" fill="#241F20"/></g></svg>